<mxfile host="Electron" agent="Mozilla/5.0 (Windows NT 10.0; Win64; x64) AppleWebKit/537.36 (KHTML, like Gecko) draw.io/26.0.16 Chrome/132.0.6834.196 Electron/34.2.0 Safari/537.36" version="26.0.16">
  <diagram name="Страница — 1" id="MhZsO-eI6Q5cSMW88hyI">
    <mxGraphModel dx="757" dy="530" grid="1" gridSize="10" guides="1" tooltips="1" connect="1" arrows="1" fold="1" page="1" pageScale="1" pageWidth="827" pageHeight="1169" math="0" shadow="0">
      <root>
        <mxCell id="0" />
        <mxCell id="1" parent="0" />
        <mxCell id="bsRrCh52WF0jLn3vwOqp-1" value="Пользователь" style="shape=umlActor;verticalLabelPosition=bottom;verticalAlign=top;html=1;outlineConnect=0;" vertex="1" parent="1">
          <mxGeometry x="90" y="290" width="30" height="60" as="geometry" />
        </mxCell>
        <mxCell id="bsRrCh52WF0jLn3vwOqp-48" value="" style="rounded=0;whiteSpace=wrap;html=1;" vertex="1" parent="1">
          <mxGeometry x="160" y="160" width="630" height="360" as="geometry" />
        </mxCell>
        <mxCell id="bsRrCh52WF0jLn3vwOqp-49" value="&lt;b style=&quot;forced-color-adjust: none; color: rgb(0, 0, 0); font-family: Helvetica; font-style: normal; font-variant-ligatures: normal; font-variant-caps: normal; letter-spacing: normal; orphans: 2; text-align: center; text-indent: 0px; text-transform: none; widows: 2; word-spacing: 0px; -webkit-text-stroke-width: 0px; white-space: normal; background-color: rgb(251, 251, 251); text-decoration-thickness: initial; text-decoration-style: initial; text-decoration-color: initial;&quot;&gt;&lt;font style=&quot;forced-color-adjust: none;&quot;&gt;Система решения транспортной задачи методом минимальных элементов&lt;/font&gt;&lt;/b&gt;" style="text;whiteSpace=wrap;html=1;fontSize=12;" vertex="1" parent="1">
          <mxGeometry x="260" y="154" width="460" height="40" as="geometry" />
        </mxCell>
        <mxCell id="bsRrCh52WF0jLn3vwOqp-57" style="edgeStyle=orthogonalEdgeStyle;rounded=0;orthogonalLoop=1;jettySize=auto;html=1;exitX=1;exitY=0.5;exitDx=0;exitDy=0;entryX=0;entryY=0.5;entryDx=0;entryDy=0;curved=1;strokeColor=default;dashed=1;" edge="1" parent="1" source="bsRrCh52WF0jLn3vwOqp-50" target="bsRrCh52WF0jLn3vwOqp-56">
          <mxGeometry relative="1" as="geometry" />
        </mxCell>
        <mxCell id="bsRrCh52WF0jLn3vwOqp-50" value="Выбор метода" style="ellipse;whiteSpace=wrap;html=1;" vertex="1" parent="1">
          <mxGeometry x="170" y="194" width="120" height="80" as="geometry" />
        </mxCell>
        <mxCell id="bsRrCh52WF0jLn3vwOqp-54" value="" style="endArrow=none;html=1;rounded=0;entryX=0;entryY=0.5;entryDx=0;entryDy=0;exitX=0.5;exitY=0;exitDx=0;exitDy=0;exitPerimeter=0;startFill=0;" edge="1" parent="1" source="bsRrCh52WF0jLn3vwOqp-1" target="bsRrCh52WF0jLn3vwOqp-50">
          <mxGeometry width="50" height="50" relative="1" as="geometry">
            <mxPoint x="120" y="300" as="sourcePoint" />
            <mxPoint x="170" y="250" as="targetPoint" />
          </mxGeometry>
        </mxCell>
        <mxCell id="bsRrCh52WF0jLn3vwOqp-64" style="edgeStyle=orthogonalEdgeStyle;rounded=0;orthogonalLoop=1;jettySize=auto;html=1;exitX=1;exitY=0;exitDx=0;exitDy=0;entryX=0;entryY=0;entryDx=0;entryDy=0;curved=1;dashed=1;" edge="1" parent="1" source="bsRrCh52WF0jLn3vwOqp-56" target="bsRrCh52WF0jLn3vwOqp-63">
          <mxGeometry relative="1" as="geometry" />
        </mxCell>
        <mxCell id="bsRrCh52WF0jLn3vwOqp-65" style="edgeStyle=orthogonalEdgeStyle;rounded=0;orthogonalLoop=1;jettySize=auto;html=1;exitX=1;exitY=0.5;exitDx=0;exitDy=0;curved=1;entryX=0.367;entryY=-0.001;entryDx=0;entryDy=0;entryPerimeter=0;dashed=1;" edge="1" parent="1" source="bsRrCh52WF0jLn3vwOqp-56" target="bsRrCh52WF0jLn3vwOqp-62">
          <mxGeometry relative="1" as="geometry">
            <Array as="points">
              <mxPoint x="570" y="234" />
              <mxPoint x="570" y="288" />
            </Array>
          </mxGeometry>
        </mxCell>
        <mxCell id="bsRrCh52WF0jLn3vwOqp-66" style="edgeStyle=orthogonalEdgeStyle;rounded=0;orthogonalLoop=1;jettySize=auto;html=1;exitX=1;exitY=1;exitDx=0;exitDy=0;curved=1;dashed=1;" edge="1" parent="1" source="bsRrCh52WF0jLn3vwOqp-56" target="bsRrCh52WF0jLn3vwOqp-61">
          <mxGeometry relative="1" as="geometry">
            <Array as="points">
              <mxPoint x="472" y="300" />
              <mxPoint x="550" y="300" />
              <mxPoint x="550" y="430" />
            </Array>
          </mxGeometry>
        </mxCell>
        <mxCell id="bsRrCh52WF0jLn3vwOqp-56" value="Ввод данных" style="ellipse;whiteSpace=wrap;html=1;" vertex="1" parent="1">
          <mxGeometry x="370" y="194" width="120" height="80" as="geometry" />
        </mxCell>
        <mxCell id="bsRrCh52WF0jLn3vwOqp-58" value="Include" style="text;html=1;align=center;verticalAlign=middle;whiteSpace=wrap;rounded=0;" vertex="1" parent="1">
          <mxGeometry x="310" y="220" width="50" height="14" as="geometry" />
        </mxCell>
        <mxCell id="bsRrCh52WF0jLn3vwOqp-60" value="Просмотр результатов" style="ellipse;whiteSpace=wrap;html=1;" vertex="1" parent="1">
          <mxGeometry x="190" y="425" width="120" height="80" as="geometry" />
        </mxCell>
        <mxCell id="bsRrCh52WF0jLn3vwOqp-61" value="Ввод матрицы стоимостей" style="ellipse;whiteSpace=wrap;html=1;" vertex="1" parent="1">
          <mxGeometry x="580" y="390" width="120" height="80" as="geometry" />
        </mxCell>
        <mxCell id="bsRrCh52WF0jLn3vwOqp-62" value="Ввод кол-ва поликлиник" style="ellipse;whiteSpace=wrap;html=1;" vertex="1" parent="1">
          <mxGeometry x="570" y="288" width="120" height="80" as="geometry" />
        </mxCell>
        <mxCell id="bsRrCh52WF0jLn3vwOqp-63" value="Ввод кол-ва заводов" style="ellipse;whiteSpace=wrap;html=1;" vertex="1" parent="1">
          <mxGeometry x="580" y="187" width="120" height="80" as="geometry" />
        </mxCell>
        <mxCell id="bsRrCh52WF0jLn3vwOqp-67" value="Include" style="text;html=1;align=center;verticalAlign=middle;whiteSpace=wrap;rounded=0;" vertex="1" parent="1">
          <mxGeometry x="490" y="187" width="50" height="14" as="geometry" />
        </mxCell>
        <mxCell id="bsRrCh52WF0jLn3vwOqp-68" value="Include" style="text;html=1;align=center;verticalAlign=middle;whiteSpace=wrap;rounded=0;" vertex="1" parent="1">
          <mxGeometry x="500" y="220" width="50" height="14" as="geometry" />
        </mxCell>
        <mxCell id="bsRrCh52WF0jLn3vwOqp-69" value="Include" style="text;html=1;align=center;verticalAlign=middle;whiteSpace=wrap;rounded=0;" vertex="1" parent="1">
          <mxGeometry x="490" y="283" width="50" height="14" as="geometry" />
        </mxCell>
        <mxCell id="bsRrCh52WF0jLn3vwOqp-70" style="edgeStyle=orthogonalEdgeStyle;rounded=0;orthogonalLoop=1;jettySize=auto;html=1;exitX=1;exitY=0.3333333333333333;exitDx=0;exitDy=0;exitPerimeter=0;entryX=0;entryY=0.5;entryDx=0;entryDy=0;curved=1;endArrow=none;startFill=0;" edge="1" parent="1" source="bsRrCh52WF0jLn3vwOqp-1" target="bsRrCh52WF0jLn3vwOqp-60">
          <mxGeometry relative="1" as="geometry" />
        </mxCell>
        <mxCell id="bsRrCh52WF0jLn3vwOqp-71" value="Нажатие на кнопку &quot;Построить опорный план&quot;" style="ellipse;whiteSpace=wrap;html=1;" vertex="1" parent="1">
          <mxGeometry x="270" y="280" width="120" height="80" as="geometry" />
        </mxCell>
        <mxCell id="bsRrCh52WF0jLn3vwOqp-72" style="edgeStyle=orthogonalEdgeStyle;rounded=0;orthogonalLoop=1;jettySize=auto;html=1;exitX=0.75;exitY=0.1;exitDx=0;exitDy=0;exitPerimeter=0;entryX=0.014;entryY=0.374;entryDx=0;entryDy=0;entryPerimeter=0;curved=1;endArrow=none;startFill=0;" edge="1" parent="1" source="bsRrCh52WF0jLn3vwOqp-1" target="bsRrCh52WF0jLn3vwOqp-71">
          <mxGeometry relative="1" as="geometry" />
        </mxCell>
        <mxCell id="bsRrCh52WF0jLn3vwOqp-73" value="Нажатие на кнопку &quot;Очистить матрицу стоимостей&quot;" style="ellipse;whiteSpace=wrap;html=1;" vertex="1" parent="1">
          <mxGeometry x="320" y="368" width="120" height="80" as="geometry" />
        </mxCell>
        <mxCell id="bsRrCh52WF0jLn3vwOqp-74" style="edgeStyle=orthogonalEdgeStyle;rounded=0;orthogonalLoop=1;jettySize=auto;html=1;exitX=0.75;exitY=0.1;exitDx=0;exitDy=0;exitPerimeter=0;entryX=0;entryY=0.5;entryDx=0;entryDy=0;endArrow=none;startFill=0;curved=1;" edge="1" parent="1" source="bsRrCh52WF0jLn3vwOqp-1" target="bsRrCh52WF0jLn3vwOqp-73">
          <mxGeometry relative="1" as="geometry" />
        </mxCell>
      </root>
    </mxGraphModel>
  </diagram>
</mxfile>
